HIERARCHY
ROOT Hips
{
	OFFSET 0.000000 83.214638 0.000000
	CHANNELS 6 Xposition Yposition Zposition Xrotation Yrotation Zrotation
	JOINT Pelvis
	{
		OFFSET 0.000000 0.000000 0.000000
		CHANNELS 3 Xrotation Yrotation Zrotation
		JOINT LeftUpLeg
		{
			OFFSET 8.479700 -4.795502 -0.379100
			CHANNELS 3 Xrotation Yrotation Zrotation
			JOINT LeftLeg
			{
				OFFSET 0.024144 -32.555107 0.112900
				CHANNELS 3 Xrotation Yrotation Zrotation
				JOINT LeftFoot
				{
					OFFSET -0.024144 -32.638630 -3.012600
					CHANNELS 3 Xrotation Yrotation Zrotation
					JOINT LeftToeBase
					{
						OFFSET 0.970200 -13.225400 11.864200
						CHANNELS 3 Xrotation Yrotation Zrotation
						End Site
						{
							OFFSET 0.000000 12.319262 0.000000
						}
					}
					JOINT LFootTongue
					{
						OFFSET 1.142400 -1.059800 6.665200
						CHANNELS 3 Xrotation Yrotation Zrotation
						End Site
						{
							OFFSET 0.000000 12.319262 0.000000
						}
					}
				}
				JOINT LeftPantLeg
				{
					OFFSET 0.918482 -16.533964 -2.284700
					CHANNELS 3 Xrotation Yrotation Zrotation
					End Site
					{
						OFFSET 0.350399 24.744368 0.000000
					}
				}
			}
		}
		JOINT RightUpLeg
		{
			OFFSET -8.479700 -4.795502 -0.379100
			CHANNELS 3 Xrotation Yrotation Zrotation
			JOINT RightLeg
			{
				OFFSET -0.023144 -32.555092 0.112900
				CHANNELS 3 Xrotation Yrotation Zrotation
				JOINT RightFoot
				{
					OFFSET 0.023144 -32.638641 -3.012700
					CHANNELS 3 Xrotation Yrotation Zrotation
					JOINT RightToeBase
					{
						OFFSET -0.970200 -13.225400 11.864200
						CHANNELS 3 Xrotation Yrotation Zrotation
						End Site
						{
							OFFSET 0.000000 12.319244 0.000000
						}
					}
					JOINT RFootTongue
					{
						OFFSET -1.142200 -1.059800 6.665200
						CHANNELS 3 Xrotation Yrotation Zrotation
						End Site
						{
							OFFSET 0.000000 12.319243 0.000000
						}
					}
				}
				JOINT RightPantLeg
				{
					OFFSET -0.919482 -16.533978 -2.284800
					CHANNELS 3 Xrotation Yrotation Zrotation
					End Site
					{
						OFFSET -0.350400 24.744419 0.000000
					}
				}
			}
		}
	}
	JOINT Spine
	{
		OFFSET 0.000000 7.722000 1.166200
		CHANNELS 3 Xrotation Yrotation Zrotation
		JOINT Spine1
		{
			OFFSET 0.000000 12.024101 0.248800
			CHANNELS 3 Xrotation Yrotation Zrotation
			JOINT Spine2
			{
				OFFSET 0.000000 11.502998 -0.491200
				CHANNELS 3 Xrotation Yrotation Zrotation
				JOINT Neck
				{
					OFFSET 0.000000 18.430702 -3.123100
					CHANNELS 3 Xrotation Yrotation Zrotation
					JOINT Head
					{
						OFFSET 0.000000 9.051102 1.034000
						CHANNELS 3 Xrotation Yrotation Zrotation
						JOINT HairB
						{
							OFFSET 0.208400 24.786102 24.822300
							CHANNELS 3 Xrotation Yrotation Zrotation
							End Site
							{
								OFFSET 0.000000 32.263779 0.000000
							}
						}
						JOINT HairA
						{
							OFFSET -7.081100 24.428299 23.196600
							CHANNELS 3 Xrotation Yrotation Zrotation
							End Site
							{
								OFFSET 0.000000 32.263779 0.000000
							}
						}
						JOINT Hat
						{
							OFFSET 16.728800 15.048294 -15.439601
							CHANNELS 3 Xrotation Yrotation Zrotation
							End Site
							{
								OFFSET 0.000000 32.263779 0.000000
							}
						}
					}
				}
				JOINT LeftShoulder
				{
					OFFSET 6.197800 13.665199 -4.064700
					CHANNELS 3 Xrotation Yrotation Zrotation
					JOINT LeftArm
					{
						OFFSET 7.778100 -0.187103 -1.709300
						CHANNELS 3 Xrotation Yrotation Zrotation
						JOINT LeftForeArm
						{
							OFFSET 22.049376 0.000000 0.000000
							CHANNELS 3 Xrotation Yrotation Zrotation
							JOINT LeftHand
							{
								OFFSET 23.009392 0.000000 0.000000
								CHANNELS 3 Xrotation Yrotation Zrotation
								JOINT LeftHandThumb1
								{
									OFFSET 3.507191 -2.063065 3.133727
									CHANNELS 3 Xrotation Yrotation Zrotation
									JOINT LeftHandThumb2
									{
										OFFSET 3.101337 -1.790558 1.790558
										CHANNELS 3 Xrotation Yrotation Zrotation
										JOINT LeftHandThumb3
										{
											OFFSET 3.058640 -1.765907 1.765906
											CHANNELS 3 Xrotation Yrotation Zrotation
											End Site
											{
												OFFSET -0.415260 3.926476 -0.049563
											}
										}
									}
								}
								JOINT LeftHandIndex1
								{
									OFFSET 11.334419 -0.901459 3.706815
									CHANNELS 3 Xrotation Yrotation Zrotation
									JOINT LeftHandIndex2
									{
										OFFSET 3.283112 0.000000 0.000000
										CHANNELS 3 Xrotation Yrotation Zrotation
										JOINT LeftHandIndex3
										{
											OFFSET 3.323853 0.000000 0.000000
											CHANNELS 3 Xrotation Yrotation Zrotation
											End Site
											{
												OFFSET -1.135597 3.097809 0.402452
											}
										}
									}
								}
								JOINT LeftHandMiddle1
								{
									OFFSET 11.335861 0.000000 0.000000
									CHANNELS 3 Xrotation Yrotation Zrotation
									JOINT LeftHandMiddle2
									{
										OFFSET 3.410492 0.000000 0.000000
										CHANNELS 3 Xrotation Yrotation Zrotation
										JOINT LeftHandMiddle3
										{
											OFFSET 3.312172 0.000000 0.000000
											CHANNELS 3 Xrotation Yrotation Zrotation
											End Site
											{
												OFFSET -1.150200 3.080154 0.400270
											}
										}
									}
								}
								JOINT LeftHandRing1
								{
									OFFSET 11.514786 -0.013176 -3.003090
									CHANNELS 3 Xrotation Yrotation Zrotation
									JOINT LeftHandRing2
									{
										OFFSET 3.053307 0.000000 0.000000
										CHANNELS 3 Xrotation Yrotation Zrotation
										JOINT LeftHandRing3
										{
											OFFSET 3.295807 0.000000 0.000000
											CHANNELS 3 Xrotation Yrotation Zrotation
											End Site
											{
												OFFSET -1.281006 3.013344 0.375733
											}
										}
									}
								}
								JOINT LeftHandPinky1
								{
									OFFSET 10.518692 -0.960396 -5.730441
									CHANNELS 3 Xrotation Yrotation Zrotation
									JOINT LeftHandPinky2
									{
										OFFSET 2.861649 0.000000 0.000000
										CHANNELS 3 Xrotation Yrotation Zrotation
										JOINT LeftHandPinky3
										{
											OFFSET 2.863380 0.000000 0.000000
											CHANNELS 3 Xrotation Yrotation Zrotation
											End Site
											{
												OFFSET -0.843597 2.711159 0.369971
											}
										}
									}
								}
							}
							JOINT LSleeve
							{
								OFFSET 6.676277 -0.344902 -1.011730
								CHANNELS 3 Xrotation Yrotation Zrotation
								End Site
								{
									OFFSET 0.000000 14.885353 0.000000
								}
							}
						}
					}
				}
				JOINT RightShoulder
				{
					OFFSET -6.197800 13.665199 -4.064700
					CHANNELS 3 Xrotation Yrotation Zrotation
					JOINT RightArm
					{
						OFFSET -7.778100 -0.187103 -1.709300
						CHANNELS 3 Xrotation Yrotation Zrotation
						JOINT RightForeArm
						{
							OFFSET -22.049376 0.000000 0.000000
							CHANNELS 3 Xrotation Yrotation Zrotation
							JOINT RightHand
							{
								OFFSET -23.009392 0.000000 0.000000
								CHANNELS 3 Xrotation Yrotation Zrotation
								JOINT RightHandThumb1
								{
									OFFSET -3.507191 -2.063065 3.133727
									CHANNELS 3 Xrotation Yrotation Zrotation
									JOINT RightHandThumb2
									{
										OFFSET -3.101337 -1.790558 1.790558
										CHANNELS 3 Xrotation Yrotation Zrotation
										JOINT RightHandThumb3
										{
											OFFSET -3.058640 -1.765907 1.765906
											CHANNELS 3 Xrotation Yrotation Zrotation
											End Site
											{
												OFFSET 0.415260 3.926476 -0.049563
											}
										}
									}
								}
								JOINT RightHandIndex1
								{
									OFFSET -11.334419 -0.901459 3.706815
									CHANNELS 3 Xrotation Yrotation Zrotation
									JOINT RightHandIndex2
									{
										OFFSET -3.283112 0.000000 0.000000
										CHANNELS 3 Xrotation Yrotation Zrotation
										JOINT RightHandIndex3
										{
											OFFSET -3.323853 0.000000 0.000000
											CHANNELS 3 Xrotation Yrotation Zrotation
											End Site
											{
												OFFSET 1.135597 3.097809 0.402452
											}
										}
									}
								}
								JOINT RightHandMiddle1
								{
									OFFSET -11.335861 0.000000 0.000000
									CHANNELS 3 Xrotation Yrotation Zrotation
									JOINT RightHandMiddle2
									{
										OFFSET -3.410492 0.000000 0.000000
										CHANNELS 3 Xrotation Yrotation Zrotation
										JOINT RightHandMiddle3
										{
											OFFSET -3.312172 0.000000 0.000000
											CHANNELS 3 Xrotation Yrotation Zrotation
											End Site
											{
												OFFSET 1.150200 3.080154 0.400270
											}
										}
									}
								}
								JOINT RightHandRing1
								{
									OFFSET -11.514786 -0.013176 -3.003090
									CHANNELS 3 Xrotation Yrotation Zrotation
									JOINT RightHandRing2
									{
										OFFSET -3.053307 0.000000 0.000000
										CHANNELS 3 Xrotation Yrotation Zrotation
										JOINT RightHandRing3
										{
											OFFSET -3.295807 0.000000 0.000000
											CHANNELS 3 Xrotation Yrotation Zrotation
											End Site
											{
												OFFSET 1.281006 3.013344 0.375733
											}
										}
									}
								}
								JOINT RightHandPinky1
								{
									OFFSET -10.518692 -0.960396 -5.730441
									CHANNELS 3 Xrotation Yrotation Zrotation
									JOINT RightHandPinky2
									{
										OFFSET -2.861649 0.000000 0.000000
										CHANNELS 3 Xrotation Yrotation Zrotation
										JOINT RightHandPinky3
										{
											OFFSET -2.863380 0.000000 0.000000
											CHANNELS 3 Xrotation Yrotation Zrotation
											End Site
											{
												OFFSET 0.843597 2.711159 0.369971
											}
										}
									}
								}
							}
							JOINT RSleeve
							{
								OFFSET -6.676277 -0.344902 -1.011730
								CHANNELS 3 Xrotation Yrotation Zrotation
								End Site
								{
									OFFSET 0.000000 14.885353 0.000000
								}
							}
						}
					}
				}
				JOINT Backpack
				{
					OFFSET 0.000000 -2.471497 36.677502
					CHANNELS 3 Xrotation Yrotation Zrotation
					End Site
					{
						OFFSET 0.000000 20.427315 0.000000
					}
				}
				JOINT Hood
				{
					OFFSET 0.000000 18.754097 -10.431000
					CHANNELS 3 Xrotation Yrotation Zrotation
					JOINT Hood1
					{
						OFFSET 0.000000 -5.011002 -7.685901
						CHANNELS 3 Xrotation Yrotation Zrotation
						End Site
						{
							OFFSET 0.000000 9.175140 0.000000
						}
					}
				}
				JOINT LHoodieString
				{
					OFFSET 5.250500 16.397697 3.089900
					CHANNELS 3 Xrotation Yrotation Zrotation
					JOINT LHoodieString1
					{
						OFFSET 0.257700 -6.364304 3.694600
						CHANNELS 3 Xrotation Yrotation Zrotation
						JOINT LHoodieString2
						{
							OFFSET 0.000000 -9.643799 2.679100
							CHANNELS 3 Xrotation Yrotation Zrotation
							End Site
							{
								OFFSET 0.000000 10.009018 0.000000
							}
						}
					}
				}
				JOINT RHoodieString
				{
					OFFSET -5.250500 16.397697 3.089900
					CHANNELS 3 Xrotation Yrotation Zrotation
					JOINT RHoodieString1
					{
						OFFSET -0.257700 -6.364304 3.694600
						CHANNELS 3 Xrotation Yrotation Zrotation
						JOINT RHoodieString2
						{
							OFFSET 0.000000 -9.643799 2.679100
							CHANNELS 3 Xrotation Yrotation Zrotation
							End Site
							{
								OFFSET 0.000000 10.009018 0.000000
							}
						}
					}
				}
			}
			JOINT LBackpack_Strap
			{
				OFFSET 15.223200 -7.719803 -6.610900
				CHANNELS 3 Xrotation Yrotation Zrotation
				End Site
				{
					OFFSET 0.000000 16.040596 0.000000
				}
			}
			JOINT RBackpack_Strap
			{
				OFFSET -15.223000 -7.719803 -6.610900
				CHANNELS 3 Xrotation Yrotation Zrotation
				End Site
				{
					OFFSET 0.000000 16.040596 0.000000
				}
			}
		}
	}
	JOINT BoyFacialAnim_Joint
	{
		OFFSET 1.000000 -82.208099 -1.550900
		CHANNELS 3 Xrotation Yrotation Zrotation
		End Site
		{
			OFFSET 0.000000 30.012791 0.000000
		}
	}
}
MOTION
Frames: 5
Frame Time: 0.033333
0.050301 78.481209 0.330470 -4.613265 -6.910646 0.154208 -0.000000 -0.000000 -0.000000 -15.278421 6.376237 5.991999 37.946574 -1.149628 -1.457077 -18.091573 0.917859 -2.437265 0.000000 0.000000 -0.000000 0.000000 0.000000 -0.000000 -0.000001 0.000000 0.000000 -14.069050 -2.024336 -8.076986 38.408486 0.274528 1.408012 -19.950286 10.097785 4.854604 -0.000000 0.000000 -0.000000 -0.000000 0.000000 -0.000000 -0.000000 0.000002 -0.000000 -0.609648 1.926737 -0.949380 -1.195182 3.841504 -1.745454 -1.195183 3.841501 -1.745455 4.202118 -1.467898 1.841142 4.196704 -1.466462 1.842719 0.000000 -0.000000 0.000000 0.000000 -0.000000 0.000000 0.000000 -0.000000 0.000000 1.197854 4.438253 -10.512899 6.982048 -13.745448 -52.209150 -0.041756 -91.539602 0.002346 -62.232285 -3.973837 -4.240618 -34.182351 -11.449357 4.141861 8.044712 24.406790 -4.066823 -0.000002 -0.000000 0.000000 -10.309908 1.662467 -36.503427 0.195402 0.552686 -32.473178 -0.000002 0.000004 -0.000003 -1.451503 -0.711704 -30.491276 -1.416845 -3.344707 -45.590741 -0.000000 0.000001 0.000000 -0.617186 0.656828 -30.142342 -1.674734 -3.683696 -49.108784 -0.000001 -0.000002 0.000001 -0.126118 -5.227698 -33.233938 -1.598336 -4.361960 -40.482996 0.000001 -0.000003 0.000001 0.000003 -0.000001 0.000001 0.495161 5.056086 8.325041 1.724769 -3.506959 63.489313 -0.081453 87.280078 0.046451 -56.938847 22.843568 4.375563 -21.459329 -17.695296 19.818356 1.557055 -14.453346 2.902891 -0.000004 0.000000 -0.000002 2.489006 -8.243334 51.627330 0.374175 -1.191953 31.878293 -0.000000 0.000001 0.000002 4.067545 -8.579879 48.780671 -0.581644 1.928829 32.954911 0.000002 -0.000000 -0.000000 6.560649 -7.824510 51.197121 -0.869055 2.913191 28.089144 0.000002 0.000001 0.000004 7.121743 -2.692938 39.738061 -2.082759 6.097552 37.894788 -0.000001 0.000005 -0.000004 0.000003 -0.000000 0.000000 0.000001 -0.000000 0.000000 0.000001 -0.000000 0.000000 0.000001 -0.000000 0.000000 0.000001 -0.000000 0.000000 0.000001 -0.000000 0.000000 0.000001 0.000000 -0.000000 0.000001 -0.000000 0.000000 0.000001 -0.000000 0.000000 0.000001 0.000000 -0.000000 0.000001 -0.000000 0.000000 0.000001 -0.000000 0.000000 -0.000000 -0.000000 -0.000000 
0.044384 78.485153 0.301456 -4.570276 -7.071754 0.136958 0.000001 -0.000000 -0.000000 -15.315137 6.321801 5.981330 37.934106 -1.160827 -1.457216 -18.078146 1.127524 -2.433769 -0.000000 0.000000 -0.000000 -0.000000 0.000000 0.000000 0.000000 0.000000 0.000000 -14.168907 -2.059297 -8.075850 38.387808 0.271571 1.407131 -19.906156 10.278651 4.853025 -0.000000 -0.000000 0.000000 -0.000000 -0.000000 0.000000 0.000001 -0.000001 0.000000 -0.611225 1.925950 -0.957294 -1.198154 3.840221 -1.760063 -1.198152 3.840221 -1.760063 4.303255 -1.309220 2.041804 4.017403 -1.135395 1.338615 0.000000 0.000000 0.000000 0.000000 0.000000 0.000000 0.000000 0.000000 0.000000 1.194739 4.446532 -10.430064 7.074317 -13.638187 -52.183041 -0.044556 -91.704114 -0.000535 -62.190512 -4.093789 -4.126798 -34.199321 -11.459245 4.118098 8.084605 24.374911 -4.101245 -0.000001 -0.000001 0.000000 -10.301455 1.669392 -36.478845 0.181243 0.539182 -32.491937 0.000001 -0.000002 -0.000002 -1.446437 -0.703634 -30.483817 -1.431680 -3.359469 -45.609876 -0.000001 0.000000 0.000000 -0.624505 0.642300 -30.109321 -1.664856 -3.671646 -49.108118 -0.000000 -0.000003 -0.000003 -0.120358 -5.220814 -33.206457 -1.596925 -4.355538 -40.496939 0.000001 0.000004 0.000002 -0.000000 0.000001 0.000000 0.491891 5.074559 8.377370 1.609445 -3.380059 63.517925 -0.080132 87.107069 0.045273 -57.003632 22.836208 4.396734 -21.447962 -17.652224 19.844833 1.603146 -14.391787 2.945631 0.000000 0.000000 0.000001 2.488068 -8.244621 51.616170 0.375132 -1.193385 31.922740 -0.000002 -0.000001 0.000002 4.071410 -8.572322 48.830829 -0.582376 1.929908 32.976051 -0.000000 0.000000 0.000005 6.561434 -7.821940 51.209056 -0.873462 2.898442 28.102366 0.000000 0.000000 0.000002 7.127368 -2.695783 39.774493 -2.084299 6.094370 37.924393 -0.000001 -0.000000 0.000000 0.000002 0.000000 0.000000 -0.000001 0.000000 -0.000000 -0.000001 0.000000 -0.000000 -0.000001 0.000000 -0.000000 -0.000001 0.000000 -0.000000 -0.000001 0.000000 -0.000000 0.000000 0.000000 -0.000000 -0.000001 0.000000 -0.000000 -0.000001 0.000000 -0.000000 0.000000 0.000000 -0.000000 -0.000000 0.000000 -0.000000 -0.000000 0.000000 -0.000000 0.000001 -0.000000 -0.000000 
0.034730 78.491341 0.256828 -4.506715 -7.249670 0.110523 0.000000 -0.000001 -0.000000 -15.378634 6.246763 5.980935 37.918010 -1.172353 -1.457253 -18.053952 1.370942 -2.435639 -0.000000 0.000000 -0.000000 -0.000000 0.000000 0.000000 -0.000002 -0.000000 -0.000000 -14.295279 -2.081951 -8.049046 38.344597 0.265789 1.405280 -19.845168 10.460509 4.845404 0.000000 0.000000 -0.000000 0.000000 0.000000 -0.000000 -0.000000 -0.000002 0.000000 -0.612062 1.926125 -0.969191 -1.199422 3.841187 -1.783781 -1.199421 3.841184 -1.783780 4.520336 -0.904363 2.555270 3.724342 -0.230298 0.485826 -0.000000 0.000000 0.000000 -0.000000 0.000000 0.000000 -0.000000 0.000000 0.000000 1.186875 4.449882 -10.254849 7.179922 -13.518669 -52.297877 -0.050280 -91.797292 -0.006142 -62.209069 -4.330084 -4.095706 -34.208442 -11.456617 4.116701 8.090654 24.370110 -4.106440 0.000002 -0.000001 -0.000001 -10.301927 1.666734 -36.470703 0.167545 0.526002 -32.480883 -0.000001 0.000002 0.000000 -1.449077 -0.707055 -30.495838 -1.447114 -3.374770 -45.638334 -0.000000 0.000001 0.000000 -0.620068 0.651399 -30.144114 -1.654903 -3.659456 -49.109156 0.000000 -0.000005 -0.000001 -0.121722 -5.221995 -33.217027 -1.594992 -4.347394 -40.495211 -0.000001 0.000000 -0.000002 0.000001 0.000000 -0.000000 0.486723 5.093798 8.481703 1.473468 -3.308553 63.489702 -0.079394 86.965056 0.044877 -57.143094 22.718036 4.240909 -21.660470 -17.899660 19.810137 1.571664 -14.433795 2.916449 0.000001 0.000001 -0.000000 2.488057 -8.244371 51.617536 0.375549 -1.194051 31.943285 -0.000002 0.000001 0.000007 4.072890 -8.569236 48.851128 -0.582843 1.930643 32.990254 0.000001 -0.000001 -0.000002 6.561856 -7.820766 51.214903 -0.876088 2.879777 28.075791 -0.000000 -0.000000 0.000002 7.124307 -2.691530 39.771413 -2.084914 6.088618 37.938002 -0.000003 0.000001 0.000002 0.000001 -0.000000 -0.000000 -0.000000 0.000000 -0.000000 -0.000000 0.000000 -0.000000 -0.000000 0.000000 -0.000000 -0.000000 0.000000 -0.000000 -0.000000 0.000000 -0.000000 -0.000000 -0.000000 -0.000000 -0.000000 0.000000 -0.000000 -0.000000 0.000000 -0.000000 -0.000000 -0.000000 -0.000000 -0.000000 -0.000000 -0.000000 -0.000000 -0.000000 -0.000000 0.000000 -0.000001 -0.000000 
0.027822 78.495300 0.237389 -4.469129 -7.219995 0.098685 0.000001 0.000000 -0.000000 -15.438652 6.197881 5.993265 37.914049 -1.178843 -1.457313 -18.027886 1.376513 -2.440196 -0.000000 0.000000 0.000000 -0.000000 0.000000 0.000000 0.000000 0.000000 -0.000000 -14.319650 -2.162488 -8.041166 38.288271 0.260088 1.403019 -19.839232 10.486377 4.842351 -0.000000 0.000000 -0.000000 -0.000000 0.000000 -0.000000 0.000001 -0.000001 -0.000000 -0.610905 1.929460 -0.975519 -1.196798 3.848127 -1.797455 -1.196799 3.848128 -1.797455 4.723373 -0.360932 3.249166 3.450138 1.115130 -0.401940 -0.000000 -0.000000 0.000000 -0.000000 -0.000000 0.000000 -0.000000 -0.000000 0.000000 1.176397 4.440951 -10.043838 7.150772 -13.531466 -52.553005 -0.040402 -91.760586 0.003844 -62.103331 -4.399145 -4.173496 -34.301299 -11.452051 4.070286 8.046388 24.405442 -4.068265 -0.000002 -0.000001 -0.000000 -10.303748 1.682268 -36.548892 0.154605 0.513541 -32.467513 -0.000001 0.000003 -0.000001 -1.441421 -0.685173 -30.587295 -1.461138 -3.388758 -45.645410 0.000001 0.000001 -0.000001 -0.631327 0.630200 -30.151580 -1.644479 -3.646823 -49.104535 0.000001 -0.000001 0.000003 -0.129050 -5.229952 -33.257677 -1.593212 -4.339683 -40.502339 0.000000 -0.000001 -0.000000 0.000000 0.000001 0.000001 0.482381 5.111852 8.564316 1.584740 -3.405626 63.448216 -0.081196 87.058527 0.046658 -57.241049 22.739704 3.978272 -21.895216 -18.148262 19.784360 1.549586 -14.463257 2.896001 0.000001 0.000001 -0.000002 2.491208 -8.238612 51.663039 0.375781 -1.194345 31.953049 -0.000002 -0.000000 0.000002 4.069246 -8.575743 48.806339 -0.582362 1.929890 32.975631 0.000003 0.000000 0.000002 6.561715 -7.821540 51.211515 -0.879319 2.862109 28.061858 0.000001 0.000004 0.000001 7.123668 -2.690141 39.773725 -2.081900 6.074109 37.889095 -0.000002 0.000001 0.000002 -0.000002 0.000000 0.000000 0.000000 0.000000 0.000000 0.000000 0.000000 0.000000 0.000000 0.000000 0.000000 0.000000 0.000000 0.000000 0.000000 0.000000 0.000000 0.000001 0.000000 -0.000000 0.000000 0.000000 0.000000 0.000000 0.000000 0.000000 0.000001 0.000000 -0.000000 0.000001 0.000000 -0.000000 0.000001 0.000000 -0.000000 0.000001 0.000000 -0.000000 
0.019867 78.499649 0.217467 -4.420002 -7.161905 0.092903 0.000000 -0.000000 0.000000 -15.517001 6.167589 6.012631 37.906932 -1.186504 -1.457415 -17.993601 1.339343 -2.446256 0.000000 -0.000000 0.000000 0.000000 -0.000000 0.000000 -0.000001 0.000000 0.000000 -14.352796 -2.259226 -8.040511 38.233808 0.255292 1.400896 -19.833845 10.497683 4.837703 0.000000 -0.000000 0.000000 0.000000 -0.000000 0.000000 0.000001 0.000000 0.000000 -0.609574 1.933482 -0.979907 -1.193890 3.856385 -1.807074 -1.193890 3.856385 -1.807074 4.867606 0.213826 3.991167 3.297876 2.766527 -1.009021 -0.000000 -0.000000 0.000000 -0.000000 -0.000000 0.000000 -0.000000 -0.000000 0.000000 1.172536 4.439975 -9.962939 7.147992 -13.520551 -52.663487 -0.038397 -91.773809 0.005770 -62.031962 -4.458094 -4.230281 -34.332383 -11.456293 4.046492 8.037551 24.412518 -4.060654 0.000000 0.000001 0.000000 -10.300406 1.692720 -36.572316 0.142648 0.502040 -32.455649 -0.000002 0.000002 -0.000002 -1.439251 -0.674584 -30.659879 -1.474086 -3.401738 -45.638402 0.000002 -0.000002 -0.000000 -0.633278 0.627201 -30.183487 -1.633581 -3.633688 -49.093129 0.000001 -0.000000 0.000001 -0.130971 -5.233162 -33.259552 -1.591592 -4.332276 -40.517283 0.000000 -0.000003 0.000001 -0.000001 0.000000 0.000000 0.481425 5.116376 8.580401 1.700816 -3.466605 63.476431 -0.081752 87.230368 0.047111 -57.186319 22.748199 3.649635 -21.999981 -18.246060 19.782610 1.546656 -14.467188 2.893269 -0.000001 0.000003 -0.000002 2.492450 -8.236143 51.681910 0.375314 -1.193709 31.932313 -0.000003 -0.000001 0.000003 4.066713 -8.580166 48.775699 -0.582573 1.930209 32.981734 -0.000000 0.000000 -0.000000 6.561341 -7.823330 51.203756 -0.883350 2.846002 28.065724 -0.000001 -0.000004 0.000001 7.123559 -2.689642 39.775651 -2.082126 6.066872 37.896577 0.000000 0.000000 -0.000001 0.000000 -0.000000 0.000000 -0.000000 0.000000 -0.000000 -0.000000 0.000000 -0.000000 -0.000000 0.000000 -0.000000 -0.000000 0.000000 -0.000000 -0.000000 0.000000 0.000000 0.000001 0.000000 0.000000 -0.000000 0.000000 -0.000000 -0.000000 0.000000 0.000000 0.000001 0.000000 0.000000 0.000000 0.000000 -0.000000 0.000000 0.000000 -0.000000 0.000000 -0.000000 0.000000 
